G04 MADE WITH FRITZING*
G04 WWW.FRITZING.ORG*
G04 SINGLE SIDED*
G04 HOLES NOT PLATED*
G04 CONTOUR ON CENTER OF CONTOUR VECTOR*
%ASAXBY*%
%FSLAX23Y23*%
%MOIN*%
%OFA0B0*%
%SFA1.0B1.0*%
%ADD10C,0.070000*%
%ADD11C,0.106299*%
%ADD12C,0.062992*%
%ADD13C,0.075000*%
%ADD14C,0.073749*%
%ADD15R,0.070000X0.069958*%
%ADD16R,0.062992X0.062992*%
%ADD17C,0.048000*%
%LNCOPPER0*%
G90*
G70*
G54D10*
X1606Y1536D03*
X1506Y1536D03*
X1406Y1536D03*
X1306Y1536D03*
X1206Y1536D03*
X1106Y1536D03*
X1006Y1536D03*
X906Y1536D03*
X806Y1536D03*
X706Y1536D03*
X606Y1536D03*
X506Y1536D03*
X406Y1536D03*
X306Y1536D03*
X206Y1536D03*
X1606Y936D03*
X1506Y936D03*
X1406Y936D03*
X1306Y936D03*
X1206Y936D03*
X1106Y936D03*
X1006Y936D03*
X906Y936D03*
X806Y936D03*
X706Y936D03*
X606Y936D03*
X506Y936D03*
X406Y936D03*
X306Y936D03*
X206Y936D03*
X1702Y1335D03*
X1602Y1335D03*
X1702Y1235D03*
X1602Y1235D03*
X1702Y1135D03*
X1602Y1135D03*
G54D11*
X785Y276D03*
X629Y286D03*
X706Y2520D03*
X550Y2530D03*
X2272Y276D03*
X2116Y286D03*
X1960Y276D03*
X1804Y286D03*
X1648Y276D03*
X1492Y286D03*
X1336Y276D03*
X1180Y286D03*
G54D12*
X2123Y2047D03*
X2123Y2146D03*
X1415Y2047D03*
X1415Y2146D03*
X667Y2047D03*
X667Y2146D03*
G54D13*
X2458Y807D03*
X2202Y807D03*
X2458Y984D03*
X2202Y984D03*
X2458Y1516D03*
X2202Y1516D03*
X2458Y1693D03*
X2202Y1693D03*
X385Y748D03*
X785Y748D03*
X1179Y2041D03*
X1179Y2441D03*
X1848Y1805D03*
X1848Y2205D03*
X391Y1687D03*
X391Y2087D03*
X1015Y1890D03*
X1415Y1890D03*
X706Y630D03*
X806Y630D03*
X906Y630D03*
G54D14*
X1254Y630D03*
X1354Y630D03*
X1454Y630D03*
G54D13*
X1651Y433D03*
X1100Y1181D03*
X2045Y788D03*
X1612Y788D03*
X1060Y630D03*
X903Y1181D03*
X391Y1339D03*
X2005Y1575D03*
X627Y1811D03*
X1612Y1811D03*
X2084Y1732D03*
X2084Y1299D03*
X1257Y1181D03*
X1100Y433D03*
G54D15*
X1606Y1536D03*
G54D16*
X2123Y2047D03*
X1415Y2047D03*
X667Y2047D03*
G54D17*
X1415Y2021D02*
X1415Y1919D01*
D02*
X1139Y2448D02*
X742Y2514D01*
D02*
X2007Y2204D02*
X1888Y2205D01*
D02*
X2085Y2047D02*
X2007Y2047D01*
D02*
X2007Y2047D02*
X2007Y2204D01*
D02*
X640Y2051D02*
X419Y2083D01*
D02*
X799Y669D02*
X792Y709D01*
D02*
X706Y1565D02*
X706Y1653D01*
D02*
X706Y1653D02*
X864Y1653D01*
D02*
X864Y1653D02*
X999Y1866D01*
D02*
X801Y1507D02*
X746Y1221D01*
D02*
X116Y1221D02*
X116Y1693D01*
D02*
X746Y1221D02*
X116Y1221D01*
D02*
X116Y1693D02*
X363Y1687D01*
D02*
X506Y1565D02*
X509Y1890D01*
D02*
X509Y1890D02*
X38Y1889D01*
D02*
X38Y1889D02*
X38Y748D01*
D02*
X38Y748D02*
X345Y748D01*
D02*
X1809Y1024D02*
X1375Y1024D01*
D02*
X1375Y1024D02*
X1331Y967D01*
D02*
X1809Y630D02*
X1809Y1024D01*
D02*
X1809Y630D02*
X1486Y630D01*
D02*
X1804Y311D02*
X1809Y630D01*
D02*
X2110Y262D02*
X2084Y157D01*
D02*
X2084Y157D02*
X1060Y157D01*
D02*
X1060Y157D02*
X723Y607D01*
D02*
X1650Y405D02*
X1648Y301D01*
D02*
X1101Y1430D02*
X1105Y1507D01*
D02*
X1100Y1210D02*
X1101Y1430D01*
D02*
X2067Y769D02*
X2282Y591D01*
D02*
X2282Y591D02*
X2273Y301D01*
D02*
X1611Y816D02*
X1607Y907D01*
D02*
X800Y256D02*
X942Y79D01*
D02*
X942Y79D02*
X2282Y79D01*
D02*
X2282Y79D02*
X2273Y251D01*
D02*
X2202Y1013D02*
X2202Y1487D01*
D02*
X2150Y2145D02*
X2556Y2127D01*
D02*
X2556Y2127D02*
X2556Y1536D01*
D02*
X1222Y630D02*
X1089Y630D01*
D02*
X906Y1507D02*
X903Y1210D01*
D02*
X404Y1507D02*
X393Y1367D01*
D02*
X2178Y1678D02*
X2030Y1590D01*
D02*
X609Y1576D02*
X624Y1772D01*
D02*
X1651Y1810D02*
X1808Y1806D01*
D02*
X548Y2363D02*
X654Y2169D01*
D02*
X550Y2505D02*
X548Y2363D01*
D02*
X694Y2146D02*
X1388Y2146D01*
D02*
X1967Y1418D02*
X1335Y1418D01*
D02*
X1335Y1418D02*
X1316Y1497D01*
D02*
X2165Y1501D02*
X1967Y1418D01*
D02*
X2556Y1536D02*
X2486Y1522D01*
D02*
X2429Y1516D02*
X2231Y1516D01*
D02*
X1887Y1652D02*
X1415Y1652D01*
D02*
X1415Y1652D02*
X1409Y1576D01*
D02*
X2047Y1718D02*
X1887Y1652D01*
D02*
X2084Y946D02*
X2084Y1271D01*
D02*
X2184Y829D02*
X2084Y946D01*
D02*
X1296Y433D02*
X1128Y433D01*
D02*
X1330Y300D02*
X1296Y433D01*
D02*
X1252Y1221D02*
X1212Y1496D01*
D02*
X902Y827D02*
X626Y827D01*
D02*
X626Y827D02*
X629Y311D01*
D02*
X906Y659D02*
X902Y827D01*
D02*
X1415Y827D02*
X902Y827D01*
D02*
X1364Y661D02*
X1415Y827D01*
D02*
X902Y827D02*
X906Y659D01*
D02*
X1415Y827D02*
X1364Y661D01*
D02*
X1487Y913D02*
X1415Y827D01*
D02*
X1966Y1418D02*
X2176Y1505D01*
D02*
X1960Y301D02*
X1966Y1418D01*
D02*
X1021Y1692D02*
X1010Y1576D01*
D02*
X1178Y1692D02*
X1021Y1692D01*
D02*
X1178Y2001D02*
X1178Y1692D01*
D02*
X2124Y2324D02*
X2123Y2184D01*
D02*
X1689Y2324D02*
X2124Y2324D01*
D02*
X1447Y2167D02*
X1689Y2324D01*
G04 End of Copper0*
M02*