G04 MADE WITH FRITZING*
G04 WWW.FRITZING.ORG*
G04 SINGLE SIDED*
G04 HOLES NOT PLATED*
G04 CONTOUR ON CENTER OF CONTOUR VECTOR*
%ASAXBY*%
%FSLAX23Y23*%
%MOIN*%
%OFA0B0*%
%SFA1.0B1.0*%
%ADD10C,0.080000*%
%ADD11C,0.116299*%
%ADD12C,0.135984*%
%ADD13C,0.072992*%
%ADD14C,0.085000*%
%ADD15C,0.083749*%
%ADD16R,0.080000X0.079958*%
%ADD17R,0.072992X0.072992*%
%LNMASK0*%
G90*
G70*
G54D10*
X1606Y1536D03*
X1506Y1536D03*
X1406Y1536D03*
X1306Y1536D03*
X1206Y1536D03*
X1106Y1536D03*
X1006Y1536D03*
X906Y1536D03*
X806Y1536D03*
X706Y1536D03*
X606Y1536D03*
X506Y1536D03*
X406Y1536D03*
X306Y1536D03*
X206Y1536D03*
X1606Y936D03*
X1506Y936D03*
X1406Y936D03*
X1306Y936D03*
X1206Y936D03*
X1106Y936D03*
X1006Y936D03*
X906Y936D03*
X806Y936D03*
X706Y936D03*
X606Y936D03*
X506Y936D03*
X406Y936D03*
X306Y936D03*
X206Y936D03*
X1702Y1335D03*
X1602Y1335D03*
X1702Y1235D03*
X1602Y1235D03*
X1702Y1135D03*
X1602Y1135D03*
G54D11*
X706Y2520D03*
X550Y2530D03*
X785Y276D03*
X629Y286D03*
X2272Y276D03*
X2116Y286D03*
X1960Y276D03*
X1804Y286D03*
X1648Y276D03*
X1492Y286D03*
X1336Y276D03*
X1180Y286D03*
G54D12*
X194Y2559D03*
X194Y197D03*
X2556Y197D03*
X2556Y2559D03*
G54D13*
X2123Y2047D03*
X2123Y2146D03*
X1415Y2047D03*
X1415Y2146D03*
X667Y2047D03*
X667Y2146D03*
G54D14*
X2458Y1516D03*
X2202Y1516D03*
X2458Y1693D03*
X2202Y1693D03*
X2458Y807D03*
X2202Y807D03*
X2458Y984D03*
X2202Y984D03*
X391Y1687D03*
X391Y2087D03*
X385Y748D03*
X785Y748D03*
X1179Y2041D03*
X1179Y2441D03*
X1848Y1805D03*
X1848Y2205D03*
X1015Y1890D03*
X1415Y1890D03*
X706Y630D03*
X806Y630D03*
X906Y630D03*
G54D15*
X1254Y630D03*
X1354Y630D03*
X1454Y630D03*
G54D14*
X1651Y433D03*
X1100Y1181D03*
X2045Y788D03*
X1612Y788D03*
X1060Y630D03*
X903Y1181D03*
X391Y1339D03*
X2005Y1575D03*
X627Y1811D03*
X1612Y1811D03*
X2084Y1732D03*
X2084Y1299D03*
X1257Y1181D03*
X1100Y433D03*
G54D16*
X1606Y1536D03*
G54D17*
X2123Y2047D03*
X1415Y2047D03*
X667Y2047D03*
G04 End of Mask0*
M02*