; NON-PLATED HOLES START AT T1
; THROUGH (PLATED) HOLES START AT T100
M48
INCH
T1C0.125984
T100C0.031497
T101C0.042251
T102C0.035000
T103C0.036000
T104C0.027559
%
T1
X025564Y001970
X025564Y025592
X001942Y001970
X001942Y025592
T100
X006667Y020474
X021234Y021458
X014147Y020474
X014147Y021458
X006667Y021458
X021234Y020474
T101
X014541Y006301
X012541Y006301
X013541Y006301
T102
X003848Y007482
X024580Y008072
X008060Y006301
X016115Y018112
X007848Y007482
X022021Y016931
X010997Y011812
X011785Y024411
X020052Y015749
X010604Y006301
X018478Y022049
X024580Y015159
X016115Y007875
X020446Y007875
X006273Y018112
X007060Y006301
X009029Y011812
X003911Y013387
X014147Y018899
X020840Y012993
X012572Y011812
X003911Y020868
X024580Y009844
X024580Y016931
X010997Y004332
X009060Y006301
X018478Y018049
X020840Y017324
X022021Y015159
X016509Y004332
X011785Y020411
X022021Y009844
X010147Y018899
X003911Y016868
X022021Y008072
T103
X012060Y015356
X016016Y012353
X007060Y015356
X003060Y015356
X015060Y015356
X008060Y009356
X002060Y015356
X005060Y015356
X011060Y009356
X014060Y015356
X007060Y009356
X008060Y015356
X013060Y015356
X006060Y015356
X011060Y015356
X005060Y009356
X016060Y009356
X016016Y013353
X006060Y009356
X016016Y011351
X003060Y009356
X009060Y009356
X004060Y015356
X016060Y015356
X017016Y011351
X017016Y013353
X013060Y009356
X004060Y009356
X010060Y009356
X009060Y015356
X002060Y009356
X014060Y009356
X017016Y012353
X012060Y009356
X015060Y009356
X010060Y015356
T104
X016480Y002757
X007060Y025198
X021160Y002857
X019600Y002757
X014920Y002857
X011800Y002857
X005500Y025298
X022720Y002757
X018040Y002857
X007848Y002757
X006288Y002857
X013360Y002757
T00
M30
